<svg xmlns="http://www.w3.org/2000/svg" viewBox="0 0 133 32.3"><style type="text/css">
	.st0{fill:#FFFFFF;}
</style><path class="st0" d="M99.4,7C93,7,88.1,12.6,87.9,19.6c-0.3,12,15.7,16.2,20.9,9.5V24  c0,0-1.7,2.9-8.1,2.9S94,22.2,94,22.2h16.7c0.2-0.8,0.2-1.7,0.2-2.5C110.9,12.7,105.8,7,99.4,7L99.4,7z M93.9,17.9  c0.7-2.7,3-4.7,5.7-4.7s5,2,5.7,4.7H93.9z M16.6,10.6c-1.8-2-4.1-3.2-6.7-3.2C4.4,7.4,0,13,0,19.8s4.4,12.4,9.9,12.4  c2.6,0,4.9-1.2,6.7-3.2v3H23V7.6h-6.4C16.6,7.6,16.6,10.6,16.6,10.6z M11.8,26.7c-2.8,0-5.1-3-5.1-6.8s2.3-6.8,5.1-6.8  s5.1,3,5.1,6.8S14.6,26.7,11.8,26.7z M59.1,29.2V16.7l0,0v-3.5c0,0-0.4-5.7-6.4-5.7s-7.3,3.3-7.3,3.3s-1.7-3.6-6.3-3.6  c-3.7,0-5.7,2.2-6.4,2.9V7.4h-6.2v24.5h6.2V16c0.4-1,1.5-2.9,3.7-2.9c2.5,0,3.2,2,3.3,3.2v12.9c0.2,1.2,0.9,2.1,1.8,2.8h6.2  c-1-0.8-1.6-1.7-1.8-2.8V17.1l0,0c0,0-0.2-3.9,3.5-4.1c2.7-0.1,3.2,2.3,3.3,3.7v0.7c0,0.1,0,0.1,0,0.1l0,0v11.6  c0.2,1.2,0.9,2.1,1.8,2.8h6.2C59.9,31.1,59.3,30.2,59.1,29.2L59.1,29.2z M76.4,7.4c-2.6,0-4.9,1.2-6.7,3.2V0h-6.4v32h6.4v-3  c1.8,2,4.1,3.2,6.7,3.2c5.5,0,9.9-5.5,9.9-12.4C86.3,13,81.9,7.4,76.4,7.4z M74.5,26.7c-2.8,0-5.1-3-5.1-6.8s2.3-6.8,5.1-6.8  c2.8,0,5.1,3,5.1,6.8C79.5,23.7,77.3,26.7,74.5,26.7z M125.8,7.4l-4.6,17.3l-4.6-17.3h-7.4l8.2,24.5h7L133,7.4H125.8z"></path></svg>