<svg xmlns="http://www.w3.org/2000/svg" viewBox="0 0 125 24.9"><style type="text/css">
	.st0{fill:#FFFFFF;}
	.st1{fill-rule:evenodd;clip-rule:evenodd;fill:#FFFFFF;}
</style><g><path class="st0" d="M12.4,7.5l7.6,0V2.7h-8.4c-0.1,0-0.2,0-0.4,0c-3,0-5.4,2.4-5.4,5.4c0,2.2,1.3,4.1,3.2,4.9l5.4,2.7   c1.3,0.6,1.1,1.8-0.4,1.8H6.4l0-2.4l-3.2,2.4L0,19.8l3.2,2.4l3.2,2.4l0-2.4l9.1,0.1c3,0,5.4-2.4,5.4-5.4c0-1.5-0.3-3.1-1.7-4.1   l-7-3.6C11.7,8.8,11.8,7.5,12.4,7.5L12.4,7.5z M37.9,2.8v12.5c0,2.2-0.7,4-2.3,5.3c-1.5,1.3-3.5,2-6,2c-2.5,0-4.4-0.6-5.7-1.9   c-1.3-1.3-2-3.1-2-5.6V2.8h5.8v13c0,1.2,1,2.2,2.2,2.2l0,0c1.2,0,2.2-1,2.2-2.2v-13H37.9L37.9,2.8z M50.3,22.2c3,0,5.4-2.4,5.4-5.4   c0-2-1.1-3.8-2.8-4.7c1.3-0.9,2.1-2.4,2.1-4.2c0-2.7-2.1-4.9-4.7-5.1V2.8H39.5v19.4H50.3L50.3,22.2z M45.3,14.2h2.8   c1.1,0,2,0.9,2,2v0c0,1-0.8,1.9-1.9,1.9h-2.9V14.2L45.3,14.2z M45.3,7.1h2.3c0.9,0,1.7,0.8,1.7,1.7v0c0,0.9-0.7,1.6-1.6,1.6h-2.4   V7.1L45.3,7.1z"></path><path class="st1" d="M115.8,7.4v4c0,2.8-2.2,5.1-4.9,5.2v5.7h-6.3v-5.7c-2.6-0.2-4.7-2.5-4.7-5.2V2.8h5.7v7.7c0,1,0.8,1.8,1.8,1.8   h0.8c1,0,1.8-0.8,1.8-1.8V6.4h0c0,0,0-0.1,0-0.1c0-2,1.6-3.5,3.5-3.5h0h0h0h0h0h0h0h0h0l0,0v0h0.7h1.4h2.8l0-2.4l3.2,2.4l3.2,2.4   l-3.2,2.4l-3.2,2.4l0-2.4H115.8L115.8,7.4z M88.2,22.2h-5.8V9.9c0-2.4,0.7-4.2,2.2-5.5c1.5-1.3,3.6-2,6.2-2c2.6,0,4.5,0.6,5.7,1.8   c1.2,1.2,1.9,3,1.9,5.5v12.5h-5.8v-5.7h-4.3V22.2L88.2,22.2z M92.6,12.4V9.1c0-1.2-1-2.2-2.2-2.2l0,0c-1.2,0-2.2,1-2.2,2.2v3.2   H92.6L92.6,12.4z M81,2.8v13.9c0,1.7-0.6,3.2-1.8,4.3c-1.2,1.1-2.8,1.6-4.8,1.6c-0.1,0-0.2,0-0.4,0c-1.1,0.1-3.3,0.1-5-1.4   c-1.6,1.7-3.9,1.5-4.7,1.5c-0.3,0-0.6,0-1,0c-2,0-3.6-0.6-4.7-1.6c-1.1-1.1-1.6-2.7-1.6-4.7V2.8h5.8v13.2c0,0.9,0.8,1.7,1.7,1.7   l0,0c0.9,0,1.7-0.8,1.7-1.7V2.8h5.5v13.2c0,0.9,0.8,1.7,1.7,1.7l0,0c0.9,0,1.7-0.8,1.7-1.7V2.8H81L81,2.8z M113.6,19.4   c0.2,0,0.5,0.1,0.7,0.2c0.2,0.1,0.4,0.3,0.5,0.5c0.1,0.2,0.2,0.5,0.2,0.7c0,0.2-0.1,0.5-0.2,0.7c-0.1,0.2-0.3,0.4-0.5,0.5   c-0.2,0.1-0.5,0.2-0.7,0.2c-0.3,0-0.5-0.1-0.7-0.2c-0.2-0.1-0.4-0.3-0.5-0.5c-0.1-0.2-0.2-0.5-0.2-0.7c0-0.3,0.1-0.5,0.2-0.7   c0.1-0.2,0.3-0.4,0.5-0.5C113.1,19.4,113.3,19.4,113.6,19.4L113.6,19.4z M113.6,19.6c-0.2,0-0.4,0.1-0.6,0.2   c-0.2,0.1-0.3,0.3-0.5,0.4c-0.1,0.2-0.2,0.4-0.2,0.6c0,0.2,0.1,0.4,0.2,0.6c0.1,0.2,0.3,0.3,0.4,0.4c0.2,0.1,0.4,0.2,0.6,0.2   c0.2,0,0.4-0.1,0.6-0.2c0.2-0.1,0.3-0.3,0.4-0.4c0.1-0.2,0.2-0.4,0.2-0.6c0-0.2-0.1-0.4-0.2-0.6c-0.1-0.2-0.3-0.3-0.5-0.4   C114,19.7,113.8,19.6,113.6,19.6L113.6,19.6z M112.9,21.6v-1.6h0.5c0.2,0,0.3,0,0.4,0c0.1,0,0.1,0.1,0.2,0.2c0,0.1,0.1,0.1,0.1,0.2   c0,0.1,0,0.2-0.1,0.3c-0.1,0.1-0.2,0.1-0.3,0.1c0.1,0,0.1,0.1,0.1,0.1c0.1,0.1,0.1,0.2,0.2,0.3l0.2,0.3h-0.3l-0.1-0.2   c-0.1-0.2-0.2-0.3-0.3-0.4c0,0-0.1-0.1-0.2-0.1h-0.1v0.7H112.9L112.9,21.6z M113.2,20.7h0.3c0.1,0,0.2,0,0.3-0.1   c0.1,0,0.1-0.1,0.1-0.2c0,0,0-0.1,0-0.1c0,0-0.1-0.1-0.1-0.1c0,0-0.1,0-0.3,0h-0.3V20.7L113.2,20.7z"></path></g></svg>