<svg xmlns="http://www.w3.org/2000/svg" viewBox="0 0 125 40.8"><style type="text/css">
	.st0{fill:#FFFFFF;}
</style><path class="st0" d="M3.8,16.9c3.6-6.6,9.8-13.8,17.1-16.3c1.5-0.4,3.5-0.8,4.8,0.2c1.2,0.9,1.3,2.4,1.1,3.7        c-0.4,1.6-1.4,3.6-3.3,3.9c-0.3,0-0.6-0.1-0.8-0.3c-0.5-0.5-0.4-1.1-0.3-1.7c0.3-1.3,1.5-2.6,2.8-2.8c0.2-0.1,0.1-0.4,0.1-0.6        c-0.2-0.3-0.4-0.5-0.7-0.6c-1.5-0.2-2.6,0.7-3.7,1.5c-4.3,3.4-7.4,7.8-9.9,12.2c-2.1,3.9-3.9,8-4.5,12.6        c-0.3,3.3,0.8,6.6,3.8,8.2c3.2,1.7,7.4,0.6,10.6-0.3l3-0.9l5.7-1.7c5.4-1.6,12.2-1.9,17.4,0.2c3.2,1.3,6.5,3.1,8.6,6.3        c0,0.1,0,0.2-0.1,0.2c-4.5-1.2-10.4-2.5-14.9-0.3l-0.2,0c-1.4-2.2-3.7-3.4-6-3.9c-7.6-0.7-13.9,2.9-21,3.8        c-3.6,0.3-7.5,0.2-10-2.6c-4-4-3.5-11-1.6-15.8C2.2,20.2,3,18.5,3.8,16.9z"></path><path class="st0" d="M14.3,19.3c1.9-3.5,4.8-7.7,8.8-9c1.1-0.2,2.2-0.1,3,0.6c1.7,1.7,1.1,4.7,0.5,6.7c0,0.1,0.1,0.2,0.2,0.3        c1.5,0,2.8-0.8,3.9-1.8c2.4-2.7,4.9-6.1,8.8-5.7c0.7,0.1,1.4,0.5,1.8,1.2c1,1.9,0,4.1-1.3,5.6c-0.5,0.5-1.2,0.9-1.9,0.6        c-0.3-0.1-0.5-0.4-0.7-0.7c-0.3-1.4,0.5-2.6,1.6-3.4c0.3-0.3,1.3-0.1,1-0.8c-0.2-0.3-0.5-0.3-0.8-0.3        c-1.9,0.8-3.1,2.7-4.2,4.3c-1.4,2.2-2.5,4.4-3.2,6.9c-0.2,0.9-0.5,2,0.1,2.8c0.4,0.5,1,0.7,1.6,0.6c1.9-0.7,3.5-2.2,4.9-3.8        c3.3-3.9,5-8.7,9.3-11.9c1.4-0.9,3.3-1.7,4.9-0.8c0.3,0.1,0.5,0.4,0.8,0.3c0.3-0.3,0.4-0.8,1-0.7c1.2,0,2.6,0,3.8,0.1l0.1,0.1        L58,11.3L51.3,25c-0.1,0.1-0.1,0.3-0.1,0.5c0.1,0.2,0.4,0.2,0.5,0.1c1-0.6,1.7-1.6,2.4-2.5c0.6-0.8,1.1-1.7,1.6-2.6        c0.2-0.3,0.4-0.6,0.8-0.5c0.4,0.1,0.9-0.1,1.1,0.2c-0.4,1.2-1.1,2.2-1.7,3.3c-1.8,2.8-4.2,6.1-7.6,7c-0.6,0.1-1.3,0.1-1.7-0.3        c-0.7-0.5-0.7-1.3-0.9-2c-0.1-0.1-0.2-0.1-0.3-0.1c-1.4,1.3-2.9,2.6-4.9,2.3c-0.6-0.1-1.2-0.6-1.5-1.2c-0.5-1-0.3-2.3-0.3-3.4        c0-0.1-0.2-0.1-0.3,0c-2.2,2.2-4.6,4.1-7.5,4.7c-1.4,0.2-2.5-0.2-3.4-1.2c-2.2-2.9-0.5-6.6,0.7-9.4c0-0.1,0-0.3-0.1-0.3        c-0.8,0.1-1.5,0.2-2.3,0.3l-0.3,0.3c-1.8,3.3-3.7,6.8-6.9,9.2c-1.3,1-3.3,1.6-4.8,0.7c-1.6-1.1-1.8-3.1-1.5-4.9        C12.7,23.1,13.4,21.1,14.3,19.3z M19.3,19.1c-0.9,1.9-1.9,3.8-1.9,6c0.1,0.4,0.3,0.9,0.8,1c0.5,0.1,0.9-0.1,1.3-0.4        c1.8-1.5,3.1-3.6,4.1-5.6c0.1-0.2,0.2-0.4,0.1-0.7c-1.1-0.4-2.1-1.2-3-2.1l-0.2,0c-0.2,0-0.2,0.2-0.3,0.3L19.3,19.1z         M22.2,15.3c0.1,1,1,1.8,1.9,2.2c0.2,0.1,0.6,0.2,0.7,0c0.3-0.6,0.5-1.3,0.7-2c0.2-0.9,0.3-2.1-0.6-2.7        c-0.3-0.2-0.7-0.2-1.1,0C22.9,13.2,22.1,14.2,22.2,15.3z M44.5,23c-0.3,0.8-0.6,1.7-0.4,2.6c0.1,0.2,0.3,0.3,0.5,0.4        c0.7,0,1.2-0.7,1.7-1.2c2.2-3,3.8-6.2,5.3-9.5c0.2-0.7,0.6-1.3,0.6-2.1c0-0.2-0.2-0.3-0.3-0.4c-0.3-0.1-0.6,0.1-0.9,0.2        c-2.9,2.2-4.5,5.5-6,8.5L44.5,23z"></path><path class="st0" d="M58.5,14.5c0.6-1.3,1.2-2.6,2-3.8c0.3-0.4,0.8-0.3,1.3-0.4l3.2,0l0.1,0.1c-0.5,1.3-1.1,2.6-1.8,3.8        c-0.2,0.3-0.5,0.6-0.9,0.7c-1.3,0-2.7,0.1-4,0C58.4,14.9,58.5,14.7,58.5,14.5z"></path><path class="st0" d="M61.8,21.1c2.3-4.7,5-9.2,8.8-13.1c3.7-3.7,7.8-6.7,12.7-7.7c1.3-0.2,2.8-0.1,3.8,0.8        c0.2,0.2,0.4,0.3,0.7,0.2c3.5-1.4,8.4-1.9,11.9-0.1c2,1,4,2.3,5.9,3.5c0.2,0.1,0.1,0.4,0,0.5c-1.1,1.2-2.1,2.5-3.1,3.8        c-0.1,0.1-0.3,0.1-0.4,0L97,5.6c-2.4-1.6-5.2-2.8-8.3-2.3c-0.3,0.2-0.2,0.6-0.2,0.9c0.1,3.2-1.1,6-2.6,8.6        c-1.2,1.8-2.7,3.7-4.8,4.3c-0.9,0.2-1.8-0.1-2.4-0.8c-1.5-2.3-0.2-5.2,0.9-7.3c1.3-2.3,3.3-4.4,5.5-6c0-0.1,0.1-0.2,0.1-0.3        c-0.2-0.2-0.6-0.1-0.8,0c-3.5,1.2-6.3,4.3-8.9,7.2c-4.6,5.7-8.1,11.9-10.1,18.7c-0.6,2.5-1.5,6.5,1.1,8.2        c2.3,1.2,4.5-0.3,6.2-1.8c2.6-2.7,4.4-5.7,5.1-9.2c0.1-1,0.4-2.5-0.5-3.2c-0.9-0.4-1.6,0.3-2.1,0.9c-1.3,1.6-1.9,3.5-2.1,5.6        c-0.6,0.5-1.3,0.8-1.9,1.3c-1.2,0.8-2.4,1.9-3.3,3c-0.1,0-0.1-0.1-0.2-0.2c-0.1-3.8,1.2-7.1,3.3-10c1.7-1.9,3.8-3.6,6.4-3        c1.1,0.3,1.9,1.5,2.1,2.6c0.4,3.6-1.1,6.7-2.7,9.7c-2.6,4.1-6.7,8.3-12,7.8c-2-0.1-3.9-1.5-4.7-3.4c-2-3.9-0.6-9,0.7-12.8        L61.8,21.1z M79.6,14.3c0,0.4,0.2,0.9,0.7,1.1c0.9,0.3,1.6-0.4,2.3-0.9c2.4-2.5,3.8-5.4,4.2-8.8c0-0.5,0.2-1.1-0.1-1.5        c-0.2,0-0.4,0-0.6,0.2c-1.6,1.1-3.1,2.6-4.2,4.2C80.7,10.3,79.7,12.1,79.6,14.3z"></path><path class="st0" d="M82.9,25.5c1.9-2.5,4.4-5.3,7.6-5.5c0.8,0,1.5,0.4,2,1c1.4,2,0.2,4.6-0.3,6.6c0,0.2,0.1,0.3,0.2,0.4        c0.7,0.1,1.4,0,2-0.3l0.2-0.3c2.3-6.5,5.7-12.6,9.8-18.4c2.5-3.3,5.8-6.8,9.5-8.4c0.9-0.3,2.2-0.7,3,0c1,0.8,0.7,2.1,0.4,3.2        c-0.1,0.9-1.1,1-1.8,1.2c0,0-0.1,0-0.1,0c0-0.6,0.3-1.1,0.5-1.7c0-0.3,0.1-0.6,0-0.9c-0.2-0.3-0.5-0.2-0.8-0.1        c-1.3,0.6-2.3,1.8-3.3,2.9c-3.6,4.2-6.3,8.9-8.7,13.6c-0.8,1.6-1.6,3.3-2.3,5c0,0.1,0,0.2,0.1,0.2c0.6,0,0.9-0.6,1.3-0.9        c3.2-2.9,5.8-6.2,8.2-9.6c0.5-0.2,1.1-0.2,1.7-0.3l0.1,0c0,0.5-0.4,0.8-0.6,1.2c-2.7,3.9-5.7,7.6-9.4,10.9l-2.7,2.2        c-0.6,0.5-0.6,1.2-0.9,1.9c-0.5,1.7-1,3.4-1.1,5.3c0,0.3,0.1,0.6,0.4,0.8c0.7,0.3,1.3-0.4,1.8-0.8c3.6-4.2,5.2-9.3,9.6-13.1        c1.5-1.1,3.4-2.1,5.2-1.3c0.3,0.1,0.6,0.5,1,0.3c0.3-0.2,0.3-0.6,0.7-0.6c1.3,0,2.7-0.1,3.9,0c0.1,0.1,0,0.3,0,0.4l-0.9,1.8        l-5.5,11.2c-0.2,0.5-0.6,1.1-0.5,1.6c0.1,0.2,0.3,0.3,0.6,0.2c1-0.6,1.8-1.5,2.5-2.5c0.7-1,1.2-2,1.9-2.9        c0.3-0.2,0.8-0.1,1.2,0c0.2,0.2-0.1,0.5-0.1,0.7c-1.6,3.4-3.9,7-7.4,8.9c-0.8,0.4-2,0.8-2.9,0.3c-0.7-0.5-0.7-1.4-1-2.1        c-0.1-0.1-0.2-0.1-0.3,0c-1.5,1.3-3.1,2.8-5.1,2.2c-1.3-0.6-1.4-2.1-1.5-3.3c-0.1,0,0-0.1-0.1-0.2l-0.2,0.1        c-1.4,1.7-3.3,3.9-5.7,3.7c-0.9-0.1-1.7-1-2-1.8c-0.8-2.7,0.1-5.6,0.7-8.2c0-0.1-0.2-0.3-0.3-0.3l-2,0l-0.3,0.4        c-1.5,2.9-3.1,5.7-5.7,8.2c-1.4,1.2-3,2.2-4.9,1.6c-1.5-0.7-2-2.3-1.9-3.9C78.9,32.1,80.7,28.7,82.9,25.5z M83.4,34.4        c0,0.6,0.3,1.1,0.9,1.3c0.4,0.1,0.8,0,1.1-0.2c1.9-1.4,3-3.6,4.1-5.5c0.1-0.2,0.2-0.5-0.1-0.7c-1-0.5-1.9-1.3-2.7-2.1        c-0.1-0.1-0.3-0.1-0.4-0.1c-0.7,1-1.2,2-1.7,3.1C84.1,31.5,83.5,32.8,83.4,34.4z M88.2,25.2c0.1,1,0.9,1.9,1.8,2.3        c0.2,0.1,0.5,0.1,0.6-0.1c0.6-1.3,1.1-2.7,0.8-4.2c-0.1-0.3-0.4-0.7-0.8-0.8c-0.4-0.1-0.7,0-1.1,0.2        C88.7,23.1,88.3,24.1,88.2,25.2z M106.4,34c0,0.5-0.2,1.1,0.2,1.4c0.2,0.2,0.5,0.2,0.8,0.1c1-0.5,1.6-1.5,2.2-2.4        c2-3.1,3.4-6.4,4.8-9.7c0.1-0.3,0.1-0.7-0.1-0.9c-0.8-0.4-1.4,0.5-2,0.9c-2.6,2.6-4,5.8-5.3,8.9L106.4,34z"></path><path class="st0" d="M110.2,9.4l1.8-2.3l0.3-0.2c5.1-0.1,9-3.1,12.6-6.7c0,0.5-0.2,0.9-0.4,1.3c-2.3,5.5-8,10.3-14.2,10.4        l-1.4,0c-0.3-0.1-0.1-0.3,0-0.5L110.2,9.4z"></path><path class="st0" d="M116.6,38.5c0-0.7,0.5-1.2,1.2-1.2c0.7,0,1.2,0.5,1.2,1.2c0,0.7-0.5,1.2-1.2,1.2   C117.1,39.7,116.6,39.2,116.6,38.5z M117.8,39.9c0.8,0,1.5-0.6,1.5-1.5c0-0.8-0.7-1.5-1.5-1.5c-0.8,0-1.5,0.6-1.5,1.5   C116.3,39.3,117,39.9,117.8,39.9z M117.5,38.6h0.3l0.4,0.7h0.3l-0.5-0.7c0.2,0,0.4-0.2,0.4-0.5c0-0.3-0.2-0.5-0.6-0.5h-0.6v1.7h0.3   V38.6z M117.5,38.4v-0.5h0.3c0.2,0,0.4,0,0.4,0.2c0,0.3-0.2,0.3-0.4,0.3H117.5z"></path></svg>