<svg xmlns="http://www.w3.org/2000/svg" viewBox="0 0 98.2 12.8"><style type="text/css">
	.st0{fill:#FFFFFF;}
</style><path class="st0" d="M22,6c1-0.5,1.7-1.4,1.7-2.6c0-2.1-1.6-3.3-4.4-3.3H14v12.3h5.7c2.8,0,4.5-1.3,4.5-3.5C24.2,7.5,23.3,6.5,22,6z   M19.4,5.5h-3.3V1.1h3.1c1.8,0,2.5,0.7,2.5,2.3C21.7,4.9,21,5.5,19.4,5.5L19.4,5.5z M16.1,11.4V6.6h3.3c1,0,2.8,0.3,2.8,2.4  c0,1.7-0.8,2.4-2.5,2.4H16.1z M1.5,7.1c0-2.9,2.2-5.3,5-5.3c2.8,0,5,2.4,5,5.3c0,2.9-2.3,5.3-5,5.3C3.8,12.5,1.5,10.1,1.5,7.1  L1.5,7.1z M3.4,7.1c0,2.7,1.1,4.3,3.1,4.3v0c1.9,0,3.1-1.6,3.1-4.3S8.4,2.8,6.5,2.8S3.4,4.4,3.4,7.1L3.4,7.1z M26,7.1  c0-2.9,2.2-5.3,5-5.3c2.8,0,5,2.4,5,5.3c0,2.9-2.3,5.3-5,5.3S26,10.1,26,7.1L26,7.1z M27.9,7.1c0,2.7,1.1,4.3,3.1,4.3v0  c1.9,0,3.1-1.6,3.1-4.3S32.9,2.8,31,2.8S27.9,4.4,27.9,7.1L27.9,7.1z M40.1,3h-3.7v-1h9.2v1h-3.7v9.4h-1.8L40.1,3L40.1,3z M49.3,1.9  h-1.9v10.4h1.9V1.9L49.3,1.9z M56.4,11.4c0.8,0,2.3-0.3,2.9-2l0.2-0.5l0.9,0.4l-0.1,0.4c-0.6,1.7-2.1,2.7-3.9,2.7  c-2.8,0-5-2.3-5-5.3c0-3,2.2-5.3,5-5.3c1.9,0,3.3,1,3.9,2.7l0.1,0.4l-0.9,0.5l-0.2-0.5c-0.5-1.3-1.5-2-2.9-2c-1.9,0-3.1,1.6-3.1,4.3  C53.3,9.8,54.5,11.4,56.4,11.4z M79.9,10.4l-0.5-1.6c-0.2-0.6-0.6-1.1-1.2-1.4c1-0.4,1.8-1.2,1.8-2.5c0-1.9-1.5-3-4-3h-3.8v10.4h1.9  V7.9h1.6c1.2,0,1.6,0.5,1.9,1.4l0.5,1.5c0.1,0.5,0.3,0.9,0.6,1.3l0.1,0.2h2.5l-0.9-0.8C80.2,11.2,80,10.8,79.9,10.4L79.9,10.4z   M74.1,3h1.8c1.6,0,2.2,0.6,2.2,2c0,1.3-0.7,1.9-2.2,1.9h-1.8C74.1,6.9,74.1,3,74.1,3z M82.7,1.9h1.9v10.4h-1.9V1.9L82.7,1.9z   M91.6,1.8c-2.8,0-5,2.4-5,5.3s2.3,5.3,5,5.3c2.8,0,5-2.4,5-5.3S94.4,1.8,91.6,1.8z M91.6,2.8c1.9,0,3.1,1.6,3.1,4.3  s-1.1,4.3-3.1,4.3c-1.9,0-3.1-1.6-3.1-4.3C88.5,4.4,89.7,2.8,91.6,2.8z M66,0.3h1.1l-0.8,2l4.4,10h-2l-1.6-3.5h-3.7L62,12.3h-1.1  L66,0.3z M65.3,4.6l-1.4,3.2h2.8C66.7,7.8,65.3,4.6,65.3,4.6z"></path></svg>