<?xml version="1.0" encoding="utf-8"?>
<!-- Generator: Adobe Illustrator 24.0.1, SVG Export Plug-In . SVG Version: 6.00 Build 0)  -->
<svg version="1.1" id="Layer_1" xmlns="http://www.w3.org/2000/svg" xmlns:xlink="http://www.w3.org/1999/xlink" x="0px" y="0px"
	 viewBox="0 0 350 53.2" style="enable-background:new 0 0 350 53.2;" xml:space="preserve">
<style type="text/css">
	.st0{clip-path:url(#SVGID_2_);fill:#CC9F53;}
	.st1{clip-path:url(#SVGID_2_);fill:#845D32;}
</style>
<g>
	<defs>
		<rect id="SVGID_1_" y="0" width="350" height="53.2"/>
	</defs>
	<clipPath id="SVGID_2_">
		<use xlink:href="#SVGID_1_"  style="overflow:visible;"/>
	</clipPath>
	<path class="st0" d="M39.7,45.5c1.5-1.4,1.5-3.8,0-5.3s-3.8-1.5-5.3,0c-1.5,1.4-1.5,3.8,0,5.3C35.9,46.9,38.2,46.9,39.7,45.5"/>
	<path class="st0" d="M46.3,38.9c1.5-1.4,1.5-3.8,0-5.3c-1.4-1.5-3.8-1.5-5.3,0c-1.5,1.4-1.5,3.8,0,5.3
		C42.5,40.3,44.8,40.3,46.3,38.9"/>
	<path class="st0" d="M52.9,32.3c1.5-1.4,1.5-3.8,0-5.3c-1.4-1.5-3.8-1.5-5.3,0c-1.5,1.4-1.5,3.8,0,5.3
		C49.1,33.7,51.5,33.7,52.9,32.3"/>
	<path class="st0" d="M6.6,52.1c1.5-1.4,1.5-3.8,0-5.3c-1.4-1.5-3.8-1.5-5.3,0c-1.5,1.4-1.5,3.8,0,5.3C2.7,53.5,5.1,53.5,6.6,52.1"
		/>
	<path class="st0" d="M13.2,45.5c1.5-1.4,1.5-3.8,0-5.3c-1.4-1.5-3.8-1.5-5.3,0c-1.5,1.4-1.5,3.8,0,5.3S11.7,46.9,13.2,45.5"/>
	<path class="st0" d="M19.8,38.8c1.5-1.4,1.5-3.8,0-5.3c-1.4-1.5-3.8-1.5-5.3,0c-1.5,1.4-1.5,3.8,0,5.3C16,40.3,18.4,40.3,19.8,38.8
		"/>
	<path class="st0" d="M26.4,45.5c1.5-1.4,1.5-3.8,0-5.3c-1.4-1.5-3.8-1.5-5.3,0c-1.5,1.4-1.5,3.8,0,5.3S25,46.9,26.4,45.5"/>
	<path class="st0" d="M33,52.1c1.5-1.4,1.5-3.8,0-5.3c-1.4-1.5-3.8-1.5-5.3,0c-1.5,1.4-1.5,3.8,0,5.3C29.2,53.5,31.6,53.6,33,52.1"
		/>
	<path class="st0" d="M39.9,19.6c1.5-1.4,1.5-3.8,0-5.3s-3.8-1.5-5.3,0c-1.5,1.4-1.5,3.8,0,5.3C36.1,21,38.5,21,39.9,19.6"/>
	<path class="st0" d="M46.6,13c1.5-1.4,1.5-3.8,0-5.3c-1.4-1.5-3.8-1.5-5.3,0c-1.5,1.4-1.5,3.8,0,5.3C42.8,14.4,45.1,14.4,46.6,13"
		/>
	<path class="st0" d="M53.2,6.3c1.5-1.4,1.5-3.8,0-5.3c-1.4-1.5-3.8-1.5-5.3,0c-1.5,1.4-1.5,3.8,0,5.3C49.4,7.8,51.7,7.8,53.2,6.3"
		/>
	<path class="st0" d="M6.8,26.1c1.5-1.4,1.5-3.8,0-5.3c-1.4-1.5-3.8-1.5-5.3,0c-1.5,1.4-1.5,3.8,0,5.3C3,27.6,5.4,27.6,6.8,26.1"/>
	<path class="st0" d="M13.5,19.5c1.5-1.4,1.5-3.8,0-5.3c-1.4-1.5-3.8-1.5-5.3,0c-1.5,1.4-1.5,3.8,0,5.3C9.7,21,12,21,13.5,19.5"/>
	<path class="st0" d="M20.1,12.9c1.5-1.4,1.5-3.8,0-5.3c-1.4-1.5-3.8-1.5-5.3,0c-1.5,1.4-1.5,3.8,0,5.3
		C16.3,14.4,18.6,14.4,20.1,12.9"/>
	<path class="st0" d="M26.7,19.5c1.5-1.4,1.5-3.8,0-5.3c-1.4-1.5-3.8-1.5-5.3,0c-1.5,1.4-1.5,3.8,0,5.3C22.9,21,25.2,21,26.7,19.5"
		/>
	<path class="st0" d="M33.3,26.2c1.5-1.4,1.5-3.8,0-5.3c-1.4-1.5-3.8-1.5-5.3,0c-1.5,1.4-1.5,3.8,0,5.3
		C29.5,27.6,31.9,27.6,33.3,26.2"/>
	<path class="st1" d="M39.5,32.5c1.5-1.4,1.5-3.8,0-5.3c-1.4-1.5-3.8-1.5-5.3,0c-1.5,1.4-1.5,3.8,0,5.3C35.6,33.9,38,33.9,39.5,32.5
		"/>
	<path class="st1" d="M46.1,25.9c1.5-1.4,1.5-3.8,0-5.3c-1.4-1.5-3.8-1.5-5.3,0c-1.5,1.4-1.5,3.8,0,5.3
		C42.3,27.3,44.6,27.3,46.1,25.9"/>
	<path class="st1" d="M52.7,19.3c1.5-1.4,1.5-3.8,0-5.3c-1.4-1.5-3.8-1.5-5.3,0c-1.5,1.4-1.5,3.8,0,5.3
		C48.9,20.7,51.3,20.7,52.7,19.3"/>
	<path class="st1" d="M6.3,39.1c1.5-1.4,1.5-3.8,0-5.3c-1.4-1.5-3.8-1.5-5.3,0c-1.5,1.4-1.5,3.8,0,5.3C2.5,40.5,4.9,40.5,6.3,39.1"
		/>
	<path class="st1" d="M13,32.4c1.5-1.4,1.5-3.8,0-5.3c-1.4-1.5-3.8-1.5-5.3,0c-1.5,1.4-1.5,3.8,0,5.3C9.2,33.9,11.5,33.9,13,32.4"/>
	<path class="st1" d="M19.6,25.8c1.5-1.4,1.5-3.8,0-5.3c-1.4-1.5-3.8-1.5-5.3,0c-1.5,1.4-1.5,3.8,0,5.3
		C15.8,27.3,18.1,27.3,19.6,25.8"/>
	<path class="st1" d="M26.2,32.5c1.5-1.4,1.5-3.8,0-5.3c-1.4-1.5-3.8-1.5-5.3,0c-1.5,1.4-1.5,3.8,0,5.3
		C22.4,33.9,24.8,33.9,26.2,32.5"/>
	<path class="st1" d="M32.8,39.1c1.5-1.4,1.5-3.8,0-5.3c-1.4-1.5-3.8-1.5-5.3,0c-1.5,1.4-1.5,3.8,0,5.3C29,40.5,31.4,40.5,32.8,39.1
		"/>
	<path class="st0" d="M89.7,42.7c2.5,0,4.4-0.4,5.5-1.3c1.2-0.9,1.7-2.1,1.7-3.6c0-0.9-0.2-1.7-0.6-2.4c-0.4-0.7-1-1.3-1.7-1.8
		C93.9,33,93,32.5,92,32c-1-0.5-2.2-0.9-3.6-1.4c-1.3-0.5-2.6-1-3.9-1.6c-1.2-0.6-2.3-1.3-3.3-2.2C80.3,26,79.5,25,79,23.8
		c-0.6-1.2-0.9-2.6-0.9-4.3c0-3.5,1.2-6.2,3.6-8.2c2.4-2,5.7-3,9.9-3c2.4,0,4.6,0.3,6.5,0.8c1.9,0.5,3.4,1.1,4.4,1.8l-2.2,5.7
		c-1.3-0.7-2.7-1.2-4.2-1.6c-1.5-0.4-3.1-0.6-4.7-0.6c-1.9,0-3.4,0.4-4.4,1.2c-1.1,0.8-1.6,1.9-1.6,3.3c0,0.9,0.2,1.6,0.5,2.2
		c0.4,0.6,0.9,1.2,1.5,1.6c0.7,0.5,1.4,0.9,2.3,1.3c0.9,0.4,1.8,0.8,2.9,1.2c1.8,0.7,3.5,1.4,4.9,2c1.4,0.7,2.6,1.5,3.6,2.5
		c1,1,1.7,2.1,2.3,3.4c0.5,1.3,0.8,2.8,0.8,4.7c0,3.5-1.2,6.2-3.7,8.1c-2.5,1.9-6.1,2.9-10.9,2.9c-1.6,0-3.1-0.1-4.4-0.3
		c-1.3-0.2-2.5-0.5-3.5-0.8c-1-0.3-1.9-0.6-2.7-0.9c-0.7-0.3-1.3-0.6-1.8-0.9l2.1-5.8c1,0.6,2.4,1.1,4.1,1.7
		C85.2,42.4,87.2,42.7,89.7,42.7"/>
	<path class="st0" d="M105.6,11l6.8-1.1v8.8h10.4v5.6h-10.4v11.9c0,2.3,0.4,4,1.1,5c0.7,1,2,1.5,3.8,1.5c1.2,0,2.3-0.1,3.3-0.4
		c0.9-0.3,1.7-0.5,2.3-0.7l1.1,5.4c-0.8,0.3-1.8,0.7-3.1,1c-1.3,0.4-2.8,0.5-4.5,0.5c-2.1,0-3.8-0.3-5.2-0.8
		c-1.4-0.6-2.5-1.4-3.3-2.4c-0.8-1.1-1.4-2.3-1.7-3.9c-0.3-1.5-0.5-3.2-0.5-5.2V11z"/>
	<path class="st0" d="M149.1,47c-1.3,0.3-3,0.7-5.1,1c-2.1,0.4-4.4,0.5-6.9,0.5c-2.3,0-4.3-0.3-5.9-1c-1.6-0.7-2.9-1.6-3.8-2.8
		c-1-1.2-1.6-2.6-2-4.3c-0.4-1.7-0.6-3.5-0.6-5.4V18.7h6.8V34c0,3.1,0.5,5.4,1.4,6.7c0.9,1.3,2.5,2,4.8,2c0.8,0,1.7,0,2.6-0.1
		c0.9-0.1,1.6-0.2,2-0.3V18.7h6.8V47z"/>
	<path class="st0" d="M178.2,47c-1.3,0.4-3,0.8-5.1,1.1c-2,0.3-4.2,0.5-6.4,0.5c-2.3,0-4.4-0.4-6.2-1.1c-1.8-0.7-3.4-1.7-4.7-3
		c-1.3-1.3-2.3-2.9-3-4.8c-0.7-1.9-1-4-1-6.3c0-2.3,0.3-4.4,0.9-6.3c0.6-1.9,1.4-3.5,2.5-4.8c1.1-1.3,2.5-2.4,4.1-3.1
		c1.6-0.7,3.4-1.1,5.5-1.1c1.4,0,2.7,0.2,3.7,0.5c1.1,0.3,2,0.7,2.8,1.1v-14l6.8-1.1V47z M158.8,33.2c0,3,0.7,5.3,2.1,7
		c1.4,1.7,3.4,2.5,5.9,2.5c1.1,0,2,0,2.8-0.1c0.8-0.1,1.4-0.2,1.9-0.3V25.6c-0.6-0.4-1.4-0.8-2.4-1.1c-1-0.4-2-0.5-3.2-0.5
		c-2.5,0-4.3,0.8-5.4,2.5C159.3,28.1,158.8,30.3,158.8,33.2"/>
	<path class="st0" d="M190.1,10.1c0,1.3-0.4,2.3-1.2,3c-0.8,0.7-1.8,1.1-2.9,1.1c-1.2,0-2.1-0.4-3-1.1c-0.8-0.7-1.2-1.8-1.2-3
		c0-1.3,0.4-2.3,1.2-3.1c0.8-0.7,1.8-1.1,3-1.1c1.1,0,2.1,0.4,2.9,1.1C189.7,7.8,190.1,8.8,190.1,10.1 M189.4,47.9h-6.8V18.7h6.8
		V47.9z"/>
	<path class="st0" d="M220.2,33.3c0,2.3-0.3,4.4-1,6.3c-0.7,1.9-1.6,3.5-2.9,4.9c-1.2,1.3-2.7,2.4-4.4,3.1c-1.7,0.7-3.6,1.1-5.7,1.1
		c-2.1,0-4-0.4-5.7-1.1c-1.7-0.7-3.2-1.8-4.4-3.1c-1.2-1.3-2.2-3-2.9-4.9c-0.7-1.9-1-4-1-6.3c0-2.3,0.3-4.4,1-6.3
		c0.7-1.9,1.7-3.5,2.9-4.8c1.2-1.3,2.7-2.4,4.4-3.1c1.7-0.7,3.6-1.1,5.6-1.1c2,0,3.9,0.4,5.7,1.1c1.7,0.7,3.2,1.8,4.4,3.1
		c1.2,1.3,2.2,3,2.9,4.8C219.9,28.9,220.2,31,220.2,33.3 M213.3,33.3c0-2.9-0.6-5.2-1.9-6.9c-1.2-1.7-3-2.5-5.2-2.5
		c-2.2,0-4,0.8-5.2,2.5c-1.2,1.7-1.9,4-1.9,6.9c0,2.9,0.6,5.3,1.9,7c1.2,1.7,3,2.6,5.2,2.6c2.2,0,4-0.9,5.2-2.6
		C212.7,38.5,213.3,36.2,213.3,33.3"/>
	<polygon class="st1" points="232.2,47.9 232.2,9.2 256.7,9.2 256.7,15.2 239.2,15.2 239.2,25.1 254.7,25.1 254.7,31 239.2,31 
		239.2,47.9 	"/>
	<path class="st1" d="M266,10.1c0,1.3-0.4,2.3-1.2,3c-0.8,0.7-1.8,1.1-2.9,1.1c-1.2,0-2.1-0.4-3-1.1c-0.8-0.7-1.2-1.8-1.2-3
		c0-1.3,0.4-2.3,1.2-3.1c0.8-0.7,1.8-1.1,3-1.1c1.1,0,2.1,0.4,2.9,1.1C265.6,7.8,266,8.8,266,10.1 M265.3,47.9h-6.8V18.7h6.8V47.9z"
		/>
	<path class="st1" d="M277,43.1c1.8,0,3.1-0.2,3.9-0.6c0.8-0.4,1.2-1.2,1.2-2.2c0-1-0.4-1.8-1.3-2.4c-0.9-0.6-2.3-1.3-4.3-2.1
		c-1.2-0.4-2.4-0.9-3.4-1.4c-1-0.5-1.9-1.1-2.7-1.8c-0.7-0.7-1.3-1.5-1.8-2.4c-0.4-1-0.6-2.1-0.6-3.5c0-2.7,1-4.8,3-6.3
		c2-1.5,4.7-2.3,8-2.3c1.7,0,3.4,0.2,4.9,0.5c1.6,0.3,2.7,0.6,3.5,0.9l-1.2,5.5c-0.7-0.3-1.7-0.6-2.9-0.9c-1.2-0.3-2.5-0.4-4-0.4
		c-1.4,0-2.5,0.2-3.4,0.7c-0.9,0.5-1.3,1.2-1.3,2.2c0,0.5,0.1,0.9,0.3,1.3c0.2,0.4,0.5,0.7,0.9,1c0.4,0.3,1,0.6,1.6,1
		c0.7,0.3,1.5,0.6,2.5,1c1.6,0.6,3,1.2,4.1,1.8c1.1,0.6,2,1.2,2.8,2c0.7,0.7,1.3,1.6,1.6,2.5c0.3,0.9,0.5,2,0.5,3.4
		c0,2.8-1,4.9-3.1,6.3c-2.1,1.4-5,2.2-8.9,2.2c-2.6,0-4.6-0.2-6.2-0.6c-1.6-0.4-2.7-0.8-3.3-1l1.2-5.6c1,0.4,2.2,0.8,3.6,1.2
		C273.6,42.9,275.2,43.1,277,43.1"/>
	<path class="st1" d="M289.4,33.3c0-2.2,0.3-4.2,1-6.1c0.7-1.9,1.6-3.5,2.9-4.9c1.2-1.4,2.8-2.5,4.6-3.2c1.8-0.8,3.8-1.2,6-1.2
		c2.8,0,5.4,0.5,7.8,1.5l-1.5,5.5c-0.8-0.3-1.7-0.6-2.7-0.8c-1-0.2-2-0.3-3.2-0.3c-2.6,0-4.7,0.8-6,2.5c-1.4,1.7-2.1,4-2.1,7
		c0,2.9,0.7,5.2,2,6.9c1.3,1.7,3.5,2.5,6.6,2.5c1.2,0,2.3-0.1,3.4-0.3c1.1-0.2,2.1-0.5,2.9-0.8l1,5.6c-0.7,0.4-1.9,0.7-3.4,1
		c-1.5,0.3-3.1,0.4-4.7,0.4c-2.5,0-4.7-0.4-6.5-1.1c-1.8-0.8-3.4-1.8-4.6-3.2c-1.2-1.4-2.1-3-2.7-4.9
		C289.7,37.6,289.4,35.5,289.4,33.3"/>
	<path class="st1" d="M323.9,18c2.2,0,4.1,0.3,5.6,0.8c1.5,0.6,2.7,1.3,3.7,2.3c0.9,1,1.6,2.2,2,3.7c0.4,1.4,0.6,3,0.6,4.7v17.7
		c-1,0.2-2.6,0.5-4.7,0.8c-2.1,0.3-4.5,0.5-7.1,0.5c-1.8,0-3.4-0.2-4.8-0.5c-1.5-0.3-2.7-0.9-3.7-1.6c-1-0.7-1.8-1.7-2.4-2.9
		c-0.6-1.2-0.9-2.7-0.9-4.4c0-1.7,0.3-3.1,1-4.2c0.7-1.2,1.5-2.1,2.7-2.8c1.1-0.7,2.4-1.2,3.9-1.6c1.5-0.3,3-0.5,4.6-0.5
		c0.7,0,1.5,0,2.3,0.1c0.8,0.1,1.7,0.3,2.6,0.5v-1.1c0-0.8-0.1-1.5-0.3-2.2c-0.2-0.7-0.5-1.3-1-1.9c-0.5-0.5-1.1-1-1.8-1.3
		c-0.8-0.3-1.7-0.4-2.9-0.4c-1.6,0-3,0.1-4.3,0.3c-1.3,0.2-2.4,0.5-3.2,0.8l-0.8-5.5c0.9-0.3,2.1-0.6,3.7-0.9
		C320.3,18.1,322.1,18,323.9,18 M324.5,43.2c2.1,0,3.7-0.1,4.8-0.3v-7.5c-0.4-0.1-0.9-0.2-1.6-0.3c-0.7-0.1-1.5-0.2-2.3-0.2
		c-0.7,0-1.5,0.1-2.3,0.2c-0.8,0.1-1.5,0.3-2.1,0.6c-0.6,0.3-1.1,0.7-1.5,1.3c-0.4,0.5-0.6,1.2-0.6,2c0,1.6,0.5,2.7,1.5,3.3
		C321.4,42.9,322.8,43.2,324.5,43.2"/>
	<path class="st1" d="M349.1,48.5c-2,0-3.7-0.3-5-0.7c-1.3-0.4-2.4-1-3.2-1.8c-0.8-0.8-1.3-1.7-1.6-2.8c-0.3-1.1-0.5-2.4-0.5-3.9
		V5.7l6.8-1.1V38c0,0.8,0.1,1.5,0.2,2.1c0.1,0.6,0.4,1,0.7,1.4c0.3,0.4,0.8,0.7,1.4,0.9c0.6,0.2,1.3,0.4,2.2,0.5L349.1,48.5z"/>
</g>
</svg>
