<svg xmlns="http://www.w3.org/2000/svg" viewBox="0 0 125 44.6"><style type="text/css">
	.st0{fill:#FFFFFF;}
</style><g><path class="st0" d="M100.8,15.3c0.1-0.1,0-0.3-0.2-0.3c-1,0-2.3,0-3.3,0c-0.3,0-0.4,0-0.5,0.3c-0.4,0.7-5,7.6-5.8,9   c-0.1,0.2-0.3,0.2-0.3-0.1c-0.1-0.8-0.8-1.7-1.9-2.2c-0.8-0.3-1.6-0.4-2.5-0.3c-1.5,0.2-2.9,1-4.1,1.9C80.5,25,79,26.8,77,28.1   c-1.1,0.7-2.6,1.3-3.6,0.4c-0.9-0.8-0.8-2.7,0.6-4.1c0.1-0.1,0.3,0,0.3,0.1c-0.1,0.6,0,1.3,0.5,1.7c0.6,0.5,1.5,0.6,2.2,0.3   c0.9-0.4,1.4-1.3,1.5-2.2c0.2-1.5-0.9-2.8-2.3-2.9c-1.2-0.1-2.2,0.3-3.3,1.2c-0.5,0.4-0.8,0.8-1.3,1.4c-0.1,0.2-0.3,0.2-0.3-0.1   c0.1-1.9-0.7-2.9-2.3-3c-1.2,0-2.5,0.6-3.5,1.4c-1.1,0.9-2,2-3.1,3.2c-0.1,0.1-0.2,0.1-0.3-0.1c0-1.2-0.3-2.4-0.9-3.3   c-0.2-0.3-0.6-0.4-1-0.3c-0.2,0.1-0.8,0.4-1.2,0.7c-0.2,0.2-0.3,0.4-0.2,0.7c0.6,1.9,0.4,4-0.3,5.8c-0.7,1.6-2,3.1-3.6,3.6   c-1,0.3-2.1,0.2-2.8-0.8c-0.9-1.3-0.5-3.5,0.8-5.3c1.2-1.6,3-2.7,4.7-3.3c0.2-0.1,0.3-0.2,0.2-0.4c-0.1-0.3-0.3-0.7-0.3-0.9   c-0.2-0.4-0.6-0.5-1.2-0.4c-1.3,0.1-2.4,0.6-3.5,1.2c-2.9,1.6-4.4,4.6-5.1,6.3c-0.3,0.8-0.6,1.3-0.9,1.7c-0.5,0.6-1,1.1-2.1,2   c-0.1,0.1-0.2,0.3-0.1,0.4c0.1,0.2,0.7,1,0.8,1.1c0.2,0.1,0.4,0,0.5-0.1c0.8-0.5,1.7-1.3,2.1-1.9c0.1-0.2,0.3-0.1,0.4,0.2   c0.4,1.5,1.5,2.7,3,3.2c2.7,0.9,5.5-0.4,7.7-2.7c1.4-1.5,1.8-2.4,2.4-3.1c0.9-1.1,2.6-3.5,4.7-5.1c0.8-0.6,1.7-1,2.1-0.7   c0.4,0.2,0.5,0.8-0.1,1.8c-2.1,3.8-5.2,8.3-5.8,9.4c-0.1,0.2,0,0.3,0.2,0.3c1.1,0,2.2,0,3.2,0c0.2,0,0.3-0.1,0.3-0.2   c1.6-2.5,3.1-4.9,4.7-7.4c0.1-0.1,0.2,0,0.2,0c0,0.6,0.2,1.4,0.5,1.9c0.6,1,1.5,1.4,2.4,1.4c0.8,0,1.2-0.1,2-0.4   c0.7-0.3,1.2-0.6,1.6-0.9c0.3-0.2,0.3,0.1,0.3,0.1c-0.4,2,0.1,4.4,2.1,5.4c2.4,1.2,5-0.5,6.5-2c0.1-0.1,0.3-0.1,0.3,0.2   c0,0.6,0.3,1.3,0.8,1.7c1.3,1.3,3.8,0.8,6.4-1.2c1.6-1.3,3.4-3.1,4.9-5c0.1-0.1,0.1-0.2,0-0.3c-0.2-0.3-0.6-0.5-0.8-0.8   c-0.1-0.1-0.3-0.1-0.4,0c-1.6,1.5-3,3.2-5.1,4.7c-0.7,0.5-1.8,0.9-2.3,0.2c-0.2-0.3-0.2-0.6,0-1.1C90.8,30.7,100.3,16.1,100.8,15.3    M88.2,27.5c0,0.1,0.2,0.2,0.3,0.3c0,0,0.1,0.1,0,0.2c-0.4,0.9-0.8,1.4-1.3,2.1c-0.5,0.7-1,1.2-1.6,1.8c-1,0.8-2.3,1.7-3.4,1.1   c-0.5-0.3-0.7-0.9-0.7-1.5c0-1.6,0.7-3.2,2-4.7c1.6-1.9,3.3-2.9,4.4-2.4c1.2,0.6,0.8,1.9,0.3,3C88.2,27.3,88.2,27.4,88.2,27.5"></path><path class="st0" d="M31.5,35.8c-3.6,0-6.7-2.2-7.1-6c-0.2-2.1,0.4-4,1.6-5.5c1.1-1.4,2.8-2.5,4.4-2.8c0.5-0.1,1.2,0,1.4,0.3   c0.4,0.5,0.3,1-0.1,1.3c-1.2,0.6-2.6,1.6-3.2,3c-0.6,1.1-0.7,2.5,0.2,3.8c1.4,2.2,5.4,2.2,9.1-1.2c0.9-0.8,1.7-1.7,2.6-2.6   c1.6-1.9,2.2-2.6,4.4-5.6c0,0,0-0.1,0-0.1c0,0,0,0-0.1,0c-1.4,0-2.7,0.5-3.9,1.4c-0.4,0.3-0.9,0.2-1.1-0.1   c-0.3-0.4-0.1-0.9,0.3-1.2c2-1.4,4.1-1.6,6.3-2c0,0,0.1,0,0.3-0.2c0.9-1.2,1.6-2.2,2.6-3.4c1-1.2,2.2-2.3,3.2-3.1   c1.3-1.2,2.2-1.5,3.1-2c0.2-0.1,0-0.3-0.1-0.3c-4.9-0.9-9.9-2.1-14.8-0.3c-3.3,1.3-4.8,3.9-4.1,5.7c0.5,1.3,2.2,1.5,3.7,0.7   c1.3-0.6,2.5-1.7,3.3-2.9c0.5-0.7,1.5-0.2,0.9,1.1c-1.4,3.3-4.1,6-7.4,6.1c-2.8,0.1-4.6-2-4.6-4.5c0-5,5.6-8.3,11.5-8.8   c7.1-0.6,13.8,1.3,20.8,2.2c5.4,0.6,10.5,0.7,15.9-0.6c0.6-0.1,1.1,0.3,1,0.9c-0.1,0.9-0.8,1.8-2.6,2.8c-2,1.1-4.1,1.4-6.4,1.5   c-5.4,0-10.3-2-15.5-3.2c0,0.2,0.1,0.5-0.1,0.6c-2.8,2.1-5.4,4.2-7.2,7.3c-0.1,0.1,0,0.1,0.1,0.1c1.5-0.1,2.8-0.1,4.2-0.2   c0.3,0,0.3-0.1,0.2-0.3c-0.1-1,0.2-2.2,1.1-3c0.9-0.8,2.1-0.9,2.9-0.3c0.9,0.7,0.8,1.9,0.3,2.8c-0.5,0.9-1.3,1.4-2.1,1.7   c0,0-0.2,0-0.1,0.2c0,0.2,1.1,0.8,1.2,1c0.1,0.1,0,0.4-0.1,0.5c-0.1,0.1-0.3,0.3-0.5,0.3c-0.2,0-0.3-0.1-0.5-0.2   c-0.5-0.3-1.1-0.7-1.5-1.2c-0.1-0.2-0.2-0.2-0.5-0.1c-1.5,0.1-3.9,0.3-5.5,0.5c-0.4,0-0.4,0.1-0.5,0.3c-2.6,4.2-5.3,8.8-8.3,11.8   C37,34.9,34.4,35.7,31.5,35.8 M55.9,17c0,0.2,0.1,0.3,0.2,0.2c0.5-0.1,1-0.5,1.3-1c0.3-0.4,0.4-1,0.1-1.3c-0.3-0.2-0.7-0.2-1,0.1   C56,15.7,55.8,16.5,55.9,17"></path><path class="st0" d="M62.5,44.6C28,44.6,0,34.6,0,22.3S28,0,62.5,0S125,10,125,22.3S97,44.6,62.5,44.6 M62.5,1.8   C29.2,1.8,2.2,11,2.2,22.3s27,20.5,60.3,20.5s60.3-9.2,60.3-20.5S95.8,1.8,62.5,1.8"></path></g></svg>